# xmcd CD database file
#
# Track frame offsets:
#	150
#	15612
#	32412
#	52512
#	65262
#	88137
#	99312
#	112437
#	133362
#	151737
#	167187
#	189012
#	199812
#
# Disc length: 3058 seconds
#
# Revision: 2
# Processed by: cddbd v1.5.2PL0 Copyright (c) Steve Scherf et al.
# Submitted via: CDex 1.81
#
DISCID=a20bf00d
DTITLE=Los Hermanos Baliardo - Arte Flamenco (Hitech)
DYEAR=1991
DGENRE=Folklore
TTITLE0=La Llave Del Sol
TTITLE1=Que Si Que No
TTITLE2=Si Si La Luz Del Dia
TTITLE3=Que Se Case La Nina Bonita
TTITLE4=Ganga
TTITLE5=Vamos Todos A Bailar
TTITLE6=Rumba Indiana
TTITLE7=Solo Por Taranta
TTITLE8=Las Cuevas De Secre Monte
TTITLE9=Rumba Catalana
TTITLE10=Llorando
TTITLE11=Que Me Voy Por La Havana
TTITLE12=Arte Gitano
EXTD=YEAR: 1991
EXTT0=
EXTT1=
EXTT2=
EXTT3=
EXTT4=
EXTT5=
EXTT6=
EXTT7=
EXTT8=
EXTT9=
EXTT10=
EXTT11=
EXTT12=
PLAYORDER=
